<?xml version="1.0" encoding="UTF-8"?>
<svg id="Layer_1" data-name="Layer 1" xmlns="http://www.w3.org/2000/svg" xmlns:xlink="http://www.w3.org/1999/xlink" viewBox="0 0 200 200" style="width: 400px; height: 400px;">
  <defs>
    <style>
      .cls-1 {
        fill: url(#linear-gradient-2);
      }

      .cls-2 {
        fill: url(#linear-gradient-17);
      }

      .cls-3 {
        fill: url(#linear-gradient-15);
      }

      .cls-4 {
        fill: url(#linear-gradient-18);
      }

      .cls-5 {
        fill: url(#linear-gradient-14);
      }

      .cls-6 {
        fill: url(#linear-gradient-20);
      }

      .cls-7 {
        fill: url(#linear-gradient-6);
      }

      .cls-8 {
        fill: url(#linear-gradient-11);
      }

      .cls-9 {
        fill: url(#linear-gradient-10);
      }

      .cls-10 {
        fill: url(#linear-gradient-16);
      }

      .cls-11 {
        fill: #231f20;
        font-family: Poppins-Light, Poppins;
        font-size: 6.96px;
        font-weight: 300;
      }

      .cls-12 {
        fill: url(#linear-gradient-5);
      }

      .cls-13 {
        fill: none;
      }

      .cls-14 {
        fill: url(#linear-gradient-7);
      }

      .cls-15 {
        fill: url(#linear-gradient-9);
      }

      .cls-16 {
        fill: url(#linear-gradient-3);
      }

      .cls-17 {
        fill: url(#linear-gradient);
      }

      .cls-18 {
        fill: url(#linear-gradient-19);
      }

      .cls-19 {
        fill: url(#linear-gradient-4);
      }

      .cls-20 {
        fill: url(#linear-gradient-8);
      }

      .cls-21 {
        fill: url(#linear-gradient-12);
      }

      .cls-22 {
        fill: url(#linear-gradient-13);
      }
    </style>
    <linearGradient id="linear-gradient" x1="157.51" y1="125.1" x2="159.55" y2="125.1" gradientUnits="userSpaceOnUse">
      <stop offset="0" stop-color="#1d86ef"/>
      <stop offset=".03" stop-color="#1b7eec"/>
      <stop offset=".24" stop-color="#0f53db"/>
      <stop offset=".48" stop-color="#153eaf"/>
      <stop offset=".76" stop-color="#061e77"/>
      <stop offset="1" stop-color="#03236d"/>
    </linearGradient>
    <linearGradient id="linear-gradient-2" x1="35.1" y1="133.05" x2="162.29" y2="133.05" gradientTransform="translate(31.94 -23.85) rotate(13.28)" gradientUnits="userSpaceOnUse">
      <stop offset="0" stop-color="#1d86ef"/>
      <stop offset=".08" stop-color="#1875e8"/>
      <stop offset=".21" stop-color="#0f53db"/>
      <stop offset=".36" stop-color="#1245be"/>
      <stop offset=".43" stop-color="#153eaf"/>
      <stop offset=".45" stop-color="#133ba9"/>
      <stop offset=".73" stop-color="#061e77"/>
      <stop offset=".91" stop-color="#042072"/>
      <stop offset="1" stop-color="#03236d"/>
    </linearGradient>
    <linearGradient id="linear-gradient-3" gradientTransform="matrix(1, 0, 0, 1, 0, 0)" xlink:href="#linear-gradient-2"/>
    <linearGradient id="linear-gradient-4" gradientTransform="matrix(1, 0, 0, 1, 0, 0)" xlink:href="#linear-gradient-2"/>
    <linearGradient id="linear-gradient-5" gradientTransform="matrix(1, 0, 0, 1, 0, 0)" xlink:href="#linear-gradient-2"/>
    <linearGradient id="linear-gradient-6" gradientTransform="matrix(1, 0, 0, 1, 0, 0)" xlink:href="#linear-gradient-2"/>
    <linearGradient id="linear-gradient-7" gradientTransform="matrix(1, 0, 0, 1, 0, 0)" xlink:href="#linear-gradient-2"/>
    <linearGradient id="linear-gradient-8" gradientTransform="matrix(1, 0, 0, 1, 0, 0)" xlink:href="#linear-gradient-2"/>
    <linearGradient id="linear-gradient-9" gradientTransform="matrix(1, 0, 0, 1, 0, 0)" xlink:href="#linear-gradient-2"/>
    <linearGradient id="linear-gradient-10" gradientTransform="matrix(1, 0, 0, 1, 0, 0)" xlink:href="#linear-gradient-2"/>
    <linearGradient id="linear-gradient-11" gradientTransform="matrix(1, 0, 0, 1, 0, 0)" xlink:href="#linear-gradient-2"/>
    <linearGradient id="linear-gradient-12" gradientTransform="matrix(1, 0, 0, 1, 0, 0)" xlink:href="#linear-gradient-2"/>
    <linearGradient id="linear-gradient-13" gradientTransform="matrix(1, 0, 0, 1, 0, 0)" xlink:href="#linear-gradient-2"/>
    <linearGradient id="linear-gradient-14" gradientTransform="matrix(1, 0, 0, 1, 0, 0)" xlink:href="#linear-gradient-2"/>
    <linearGradient id="linear-gradient-15" gradientTransform="matrix(1, 0, 0, 1, 0, 0)" xlink:href="#linear-gradient-2"/>
    <linearGradient id="linear-gradient-16" gradientTransform="matrix(1, 0, 0, 1, 0, 0)" xlink:href="#linear-gradient-2"/>
    <linearGradient id="linear-gradient-17" x1="37.74" y1="148" x2="159.71" y2="148" gradientUnits="userSpaceOnUse">
      <stop offset="0" stop-color="#1d86ef"/>
      <stop offset=".07" stop-color="#197aea"/>
      <stop offset=".2" stop-color="#115ddf"/>
      <stop offset=".24" stop-color="#0f53db"/>
      <stop offset=".42" stop-color="#1246c1"/>
      <stop offset=".53" stop-color="#153eaf"/>
      <stop offset=".75" stop-color="#092482"/>
      <stop offset=".8" stop-color="#061e77"/>
      <stop offset="1" stop-color="#03236d"/>
    </linearGradient>
    <linearGradient id="linear-gradient-18" x1="141.78" y1="118.69" x2="110.58" y2="41.55" gradientUnits="userSpaceOnUse">
      <stop offset="0" stop-color="#1d86ef"/>
      <stop offset=".11" stop-color="#166fe6"/>
      <stop offset=".23" stop-color="#0f53db"/>
      <stop offset=".41" stop-color="#1246c1"/>
      <stop offset=".52" stop-color="#153eaf"/>
      <stop offset=".6" stop-color="#1237a4"/>
      <stop offset=".74" stop-color="#0a2786"/>
      <stop offset=".8" stop-color="#061e77"/>
      <stop offset=".94" stop-color="#042071"/>
      <stop offset="1" stop-color="#03236d"/>
    </linearGradient>
    <linearGradient id="linear-gradient-19" x1="131.73" y1="114.49" x2="146.47" y2="114.49" gradientUnits="userSpaceOnUse">
      <stop offset="0" stop-color="#1d86ef"/>
      <stop offset=".13" stop-color="#1465e2"/>
      <stop offset=".22" stop-color="#0f53db"/>
      <stop offset=".5" stop-color="#143eaf"/>
      <stop offset=".5" stop-color="#153eaf"/>
      <stop offset=".59" stop-color="#1137a3"/>
      <stop offset=".75" stop-color="#092685"/>
      <stop offset=".81" stop-color="#061e77"/>
      <stop offset="1" stop-color="#03236d"/>
    </linearGradient>
    <linearGradient id="linear-gradient-20" x1="47.34" y1="65.14" x2="109.37" y2="117.28" gradientUnits="userSpaceOnUse">
      <stop offset="0" stop-color="#1d86ef"/>
      <stop offset=".05" stop-color="#1a7deb"/>
      <stop offset=".12" stop-color="#1467e3"/>
      <stop offset=".18" stop-color="#0f53db"/>
      <stop offset=".43" stop-color="#153eaf"/>
      <stop offset=".53" stop-color="#133aa8"/>
      <stop offset=".66" stop-color="#0e2f96"/>
      <stop offset=".82" stop-color="#061e78"/>
      <stop offset=".83" stop-color="#061e77"/>
      <stop offset=".94" stop-color="#051f73"/>
      <stop offset="1" stop-color="#03236d"/>
    </linearGradient>
  </defs>
  <g>
    <path class="cls-17" d="M158.37,124.14v.2h-.52v1.7h-.25v-1.7h-.52v-.2h1.29Z"/>
    <path class="cls-17" d="M160.61,124.16v1.89h-.25v-1.41l-.63,1.41h-.17l-.63-1.41v1.41h-.25v-1.89h.27l.7,1.56,.7-1.56h.27Z"/>
  </g>
  <g>
    <circle class="cls-1" cx="118.39" cy="125.22" r="1.14" transform="translate(-25.6 30.55) rotate(-13.28)"/>
    <circle class="cls-16" cx="134.48" cy="125.33" r="1.14"/>
    <path class="cls-19" d="M66.6,127.47c-.22-.06-.47-.09-.74-.09-.76,0-1.46,.16-2.08,.47-.5,.25-.92,.58-1.26,.99v-1.31h-2.37v9.39h2.37v-5.92c0-.58,.25-1.04,.73-1.38,.48-.33,1.15-.5,2-.5,.26,0,.49,.03,.68,.08,.19,.05,.35,.13,.49,.22l.77-1.68c-.17-.11-.36-.2-.58-.26Z"/>
    <path class="cls-12" d="M44.75,135.06c-2.11,0-3.53-1.71-3.53-4.54s1.42-4.48,3.47-4.48c.97,0,1.71,.39,2.32,1l1.23-1.37c-.79-.81-2.02-1.55-3.55-1.55-3.28,0-5.74,2.41-5.74,6.46s2.51,6.39,5.58,6.39c1.66,0,2.97-.64,3.95-1.81l-1.23-1.34c-.69,.76-1.49,1.23-2.5,1.23Z"/>
    <path class="cls-7" d="M75.98,132.79c-.51,.81-1.08,1.45-1.94,1.91-1.52,.82-2.99,.67-4.02-.73l6.02-3.24c-.08-.23-.23-.63-.44-1.02-1.22-2.27-3.45-3.16-5.9-1.84-2.2,1.18-3.36,3.89-1.91,6.57,1.47,2.73,4.3,3.25,6.81,1.89,1.2-.65,2.12-1.66,2.69-2.7l-1.3-.84Zm-5.42-3.47c1.16-.63,2.26-.34,3.11,.93l-4.35,2.34c-.45-1.46,.09-2.65,1.24-3.27Z"/>
    <path class="cls-14" d="M80.26,135.2c2.8-2.5,4.98-4.71,4.98-6.86s-1.62-3.7-4.11-3.7c-1.78,0-2.98,.69-4.16,1.87l1.21,1.2c.73-.71,1.61-1.33,2.66-1.33,1.52,0,2.3,.8,2.3,2.07,0,1.87-2.28,3.95-6.05,7.21v1.27h8.79v-1.85h-3.4c-.67,0-1.5,.05-2.22,.12Z"/>
    <path class="cls-20" d="M53.84,127.27c-1.61,0-3.13,.62-4.26,1.3l.81,1.45c.96-.53,1.99-.99,3.04-.99,1.52,0,2.14,.78,2.22,1.83-4.6,.32-6.44,1.36-6.44,3.45,0,1.62,1.3,2.73,3.12,2.73,1.18,0,2.36-.56,3.32-1.26v1.03h2.19v-5.51c0-2.59-1.42-4.03-4.01-4.03Zm1.81,6.92c-.86,.69-1.72,1.13-2.66,1.13s-1.65-.35-1.65-1.18c0-1,.97-1.69,4.31-1.91v1.96Z"/>
    <path class="cls-15" d="M104.51,127.4c-.76,0-1.46,.16-2.08,.47-.5,.25-.92,.58-1.26,.99v-1.31h-2.37v9.39h2.37v-5.92c0-.58,.25-1.04,.73-1.38,.48-.33,1.15-.5,2-.5,.26,0,.49,.03,.68,.08,.19,.05,.35,.13,.49,.22l.77-1.68c-.17-.11-.36-.2-.58-.26-.22-.06-.47-.09-.74-.09Z"/>
    <path class="cls-9" d="M154.9,127.57v1.25c-.3-.39-.66-.71-1.08-.96-.55-.32-1.15-.47-1.81-.47-1.11,0-1.97,.32-2.58,.96-.61,.64-.92,1.54-.92,2.7v3.36c0,1.14,.31,2.03,.93,2.65,.62,.63,1.5,.94,2.63,.94,.75,0,1.38-.17,1.89-.51,.4-.27,.71-.58,.94-.96v1.95c0,.57-.18,1.02-.55,1.34-.37,.32-.89,.48-1.56,.48-.49,0-.89-.11-1.21-.33-.32-.22-.53-.55-.62-.98l-2.27,.49c.15,.83,.56,1.46,1.24,1.88,.68,.42,1.6,.63,2.75,.63,1.47,0,2.61-.32,3.41-.96,.8-.64,1.2-1.54,1.2-2.7v-10.78h-2.39Zm0,6.9c0,.37-.08,.69-.23,.95-.15,.27-.38,.47-.67,.61-.29,.14-.65,.21-1.06,.21-.64,0-1.14-.16-1.5-.48-.36-.32-.54-.78-.54-1.36v-3.31c0-.61,.18-1.09,.54-1.43,.36-.34,.86-.51,1.5-.51,.42,0,.77,.07,1.06,.21,.29,.14,.52,.35,.67,.61,.15,.27,.23,.59,.23,.96v3.53Z"/>
    <polygon class="cls-8" points="88.51 126.4 92.41 126.4 92.41 136.94 94.62 136.94 94.62 126.4 98.53 126.4 98.53 124.54 88.51 124.54 88.51 126.4"/>
    <path class="cls-21" d="M110.66,127.32c-1.61,0-3.13,.62-4.26,1.3l.81,1.45c.96-.53,1.99-.99,3.04-.99,1.52,0,2.14,.78,2.22,1.83-4.6,.32-6.44,1.36-6.44,3.45,0,1.62,1.3,2.73,3.12,2.73,1.25,0,2.5-.63,3.48-1.38h.06l.17,1.15h1.8v-5.51c0-2.59-1.42-4.03-4.01-4.03Zm1.81,6.92c-.86,.69-1.72,1.13-2.66,1.13s-1.65-.35-1.65-1.18c0-1,.97-1.69,4.31-1.91v1.96Z"/>
    <rect class="cls-22" x="117.36" y="127.59" width="2.07" height="9.32"/>
    <rect class="cls-5" x="133.44" y="127.7" width="2.07" height="9.32"/>
    <path class="cls-3" d="M127.57,127.43c-1.34,0-2.34,.65-3.2,1.47v-1.26h-2.19v9.33h2.19v-6.35c.85-.86,1.47-1.31,2.39-1.31,1.25,0,1.74,.68,1.74,2.18v5.48h2.19v-5.77c0-2.4-.97-3.77-3.12-3.77Z"/>
    <path class="cls-10" d="M143.65,127.4c-1.34,0-2.34,.65-3.2,1.47v-1.24h-.4s-1.79,0-1.79,0h0v9.32h2.19v-6.35c.85-.86,1.47-1.31,2.39-1.31,1.25,0,1.74,.68,1.74,2.18v5.48h2.19v-5.77c0-2.4-.97-3.77-3.12-3.77Z"/>
  </g>
  <g>
    <text class="cls-11" transform="translate(37.41 149.68)"><tspan x="0" y="0">Connecting Talent with Opportunity</tspan></text>
    <g>
      <path class="cls-2" d="M38.06,145.96c.21-.38,.49-.67,.86-.88,.36-.21,.77-.32,1.21-.32,.54,0,1.01,.13,1.4,.39,.39,.26,.67,.62,.85,1.09h-.57c-.14-.33-.35-.59-.64-.77s-.63-.28-1.03-.28c-.36,0-.68,.08-.96,.25s-.51,.41-.67,.72c-.16,.31-.24,.68-.24,1.09s.08,.77,.24,1.09c.16,.31,.39,.55,.67,.72s.61,.25,.96,.25c.4,0,.75-.09,1.03-.27,.29-.18,.5-.44,.64-.76h.57c-.18,.46-.46,.82-.85,1.08s-.85,.38-1.39,.38c-.45,0-.85-.11-1.21-.32-.36-.21-.65-.5-.86-.88-.21-.38-.31-.8-.31-1.28s.1-.91,.31-1.28Z"/>
      <path class="cls-2" d="M44.03,149.49c-.29-.16-.51-.39-.67-.68s-.25-.64-.25-1.03,.08-.74,.25-1.03c.17-.29,.39-.52,.68-.68,.29-.16,.61-.24,.97-.24s.68,.08,.97,.24c.29,.16,.52,.39,.68,.68,.16,.29,.25,.64,.25,1.03s-.08,.73-.25,1.03-.4,.53-.69,.69c-.29,.16-.62,.24-.97,.24s-.68-.08-.96-.24Zm1.66-.35c.21-.11,.39-.29,.52-.52,.13-.23,.2-.51,.2-.84s-.06-.62-.19-.85-.3-.4-.52-.51c-.21-.11-.45-.17-.7-.17s-.48,.06-.7,.17c-.21,.11-.38,.29-.51,.51-.13,.23-.19,.51-.19,.85s.06,.62,.19,.84c.13,.23,.3,.4,.51,.52,.21,.11,.44,.17,.69,.17s.48-.06,.7-.17Z"/>
      <path class="cls-2" d="M50.69,146.23c.29,.28,.43,.69,.43,1.22v2.23h-.48v-2.17c0-.41-.1-.73-.31-.95-.21-.22-.49-.33-.85-.33s-.66,.12-.88,.35c-.22,.23-.33,.57-.33,1.02v2.07h-.49v-3.8h.49v.65c.12-.23,.29-.41,.52-.53,.23-.12,.48-.18,.77-.18,.45,0,.83,.14,1.11,.42Z"/>
      <path class="cls-2" d="M55.1,146.23c.29,.28,.43,.69,.43,1.22v2.23h-.48v-2.17c0-.41-.1-.73-.31-.95-.21-.22-.49-.33-.85-.33s-.66,.12-.88,.35c-.22,.23-.33,.57-.33,1.02v2.07h-.49v-3.8h.49v.65c.12-.23,.29-.41,.52-.53,.23-.12,.48-.18,.77-.18,.45,0,.83,.14,1.11,.42Z"/>
      <path class="cls-2" d="M60.03,147.97h-3.15c.01,.29,.08,.53,.21,.74,.13,.21,.29,.36,.49,.46s.43,.16,.67,.16c.32,0,.58-.08,.8-.23,.22-.15,.36-.36,.43-.62h.52c-.09,.37-.29,.67-.59,.91-.3,.23-.69,.35-1.15,.35-.36,0-.68-.08-.96-.24-.28-.16-.5-.39-.66-.68-.16-.29-.24-.64-.24-1.03s.08-.74,.24-1.04c.16-.3,.38-.52,.66-.68,.28-.16,.61-.24,.97-.24s.68,.08,.95,.24c.27,.16,.48,.37,.63,.64s.22,.56,.22,.89c0,.17,0,.29-.01,.38Zm-.65-1.12c-.12-.2-.28-.35-.48-.45-.2-.1-.43-.15-.67-.15-.36,0-.67,.12-.93,.35-.25,.23-.4,.56-.42,.98h2.67c0-.28-.05-.52-.17-.72Z"/>
      <path class="cls-2" d="M60.95,146.75c.16-.29,.38-.52,.65-.68s.6-.24,.95-.24c.47,0,.85,.12,1.16,.35,.3,.23,.5,.55,.59,.95h-.52c-.06-.27-.21-.49-.42-.64-.22-.16-.48-.23-.8-.23-.26,0-.48,.06-.69,.17s-.37,.29-.48,.52c-.12,.23-.18,.51-.18,.85s.06,.62,.18,.85c.12,.23,.28,.41,.48,.52,.2,.12,.43,.17,.69,.17,.32,0,.59-.08,.8-.23,.22-.16,.36-.37,.42-.65h.52c-.09,.39-.29,.7-.59,.94-.31,.24-.69,.35-1.15,.35-.36,0-.68-.08-.95-.24s-.5-.39-.65-.68c-.16-.29-.24-.64-.24-1.03s.08-.74,.24-1.03Z"/>
      <path class="cls-2" d="M65.83,146.29v2.36c0,.23,.04,.39,.13,.48,.09,.09,.24,.13,.47,.13h.45v.42h-.52c-.34,0-.6-.08-.77-.24s-.25-.42-.25-.79v-2.36h-.53v-.41h.53v-.95h.49v.95h1.04v.41h-1.04Z"/>
      <path class="cls-2" d="M67.67,145.06c-.07-.07-.1-.16-.1-.26s.03-.19,.1-.25c.07-.07,.15-.1,.25-.1s.18,.03,.25,.1c.07,.07,.1,.15,.1,.25s-.04,.19-.1,.26c-.07,.07-.15,.1-.25,.1s-.18-.04-.25-.1Zm.49,.82v3.8h-.49v-3.8h.49Z"/>
      <path class="cls-2" d="M72.17,146.23c.29,.28,.43,.69,.43,1.22v2.23h-.48v-2.17c0-.41-.1-.73-.31-.95-.21-.22-.49-.33-.85-.33s-.66,.12-.88,.35c-.22,.23-.33,.57-.33,1.02v2.07h-.49v-3.8h.49v.65c.12-.23,.29-.41,.52-.53,.23-.12,.48-.18,.77-.18,.45,0,.83,.14,1.11,.42Z"/>
      <path class="cls-2" d="M76.2,146.07c.26,.17,.45,.38,.57,.63v-.83h.49v3.9c0,.35-.08,.66-.23,.92-.15,.27-.36,.48-.63,.62-.27,.15-.58,.22-.92,.22-.49,0-.89-.12-1.21-.35-.32-.23-.52-.55-.6-.95h.48c.08,.26,.24,.48,.48,.63,.23,.16,.52,.24,.86,.24,.25,0,.47-.05,.66-.16s.35-.26,.46-.46,.17-.45,.17-.72v-.94c-.12,.26-.31,.47-.57,.64s-.57,.25-.93,.25-.66-.08-.94-.24c-.28-.16-.49-.39-.65-.69-.16-.3-.23-.64-.23-1.03s.08-.73,.23-1.03c.16-.29,.37-.52,.65-.68,.28-.16,.59-.24,.94-.24s.67,.08,.93,.25Zm.38,.9c-.13-.23-.3-.41-.51-.54-.22-.13-.45-.19-.71-.19s-.51,.06-.72,.18c-.21,.12-.38,.3-.5,.53-.12,.23-.18,.5-.18,.82s.06,.58,.18,.82c.12,.23,.29,.41,.5,.54,.21,.12,.45,.18,.72,.18s.5-.06,.71-.19c.22-.12,.39-.3,.51-.54,.13-.23,.19-.5,.19-.81s-.06-.58-.19-.81Z"/>
      <path class="cls-2" d="M83.13,144.81v.4h-1.35v4.46h-.49v-4.46h-1.36v-.4h3.19Z"/>
      <path class="cls-2" d="M83.91,146.75c.16-.29,.37-.52,.65-.68,.28-.16,.59-.24,.94-.24s.67,.08,.94,.25,.45,.38,.57,.64v-.84h.49v3.8h-.49v-.84c-.12,.26-.31,.47-.57,.64s-.57,.25-.94,.25-.65-.08-.93-.24c-.28-.16-.49-.39-.65-.69-.16-.3-.23-.64-.23-1.03s.08-.73,.23-1.03Zm2.9,.23c-.13-.23-.3-.41-.51-.54-.22-.13-.45-.19-.71-.19s-.51,.06-.72,.18c-.21,.12-.38,.3-.5,.53-.12,.23-.18,.5-.18,.82s.06,.58,.18,.82c.12,.23,.29,.41,.5,.54,.21,.12,.45,.18,.72,.18s.5-.06,.71-.19c.22-.12,.39-.3,.51-.54,.13-.23,.19-.5,.19-.81s-.06-.58-.19-.81Z"/>
      <path class="cls-2" d="M89.08,144.53v5.15h-.49v-5.15h.49Z"/>
      <path class="cls-2" d="M93.61,147.97h-3.15c.01,.29,.08,.53,.21,.74,.13,.21,.29,.36,.49,.46s.43,.16,.67,.16c.32,0,.58-.08,.8-.23,.22-.15,.36-.36,.43-.62h.52c-.09,.37-.29,.67-.59,.91-.3,.23-.69,.35-1.15,.35-.36,0-.68-.08-.96-.24-.28-.16-.5-.39-.66-.68-.16-.29-.24-.64-.24-1.03s.08-.74,.24-1.04c.16-.3,.38-.52,.66-.68,.28-.16,.61-.24,.97-.24s.68,.08,.95,.24c.27,.16,.48,.37,.63,.64s.22,.56,.22,.89c0,.17,0,.29-.01,.38Zm-.65-1.12c-.12-.2-.28-.35-.48-.45-.2-.1-.43-.15-.67-.15-.36,0-.67,.12-.93,.35-.25,.23-.4,.56-.42,.98h2.67c0-.28-.05-.52-.17-.72Z"/>
      <path class="cls-2" d="M97.41,146.23c.29,.28,.43,.69,.43,1.22v2.23h-.48v-2.17c0-.41-.1-.73-.31-.95-.21-.22-.49-.33-.85-.33s-.66,.12-.88,.35c-.22,.23-.33,.57-.33,1.02v2.07h-.49v-3.8h.49v.65c.12-.23,.29-.41,.52-.53,.23-.12,.48-.18,.77-.18,.45,0,.83,.14,1.11,.42Z"/>
      <path class="cls-2" d="M99.56,146.29v2.36c0,.23,.04,.39,.13,.48,.09,.09,.24,.13,.47,.13h.45v.42h-.52c-.34,0-.6-.08-.77-.24s-.25-.42-.25-.79v-2.36h-.53v-.41h.53v-.95h.49v.95h1.04v.41h-1.04Z"/>
      <path class="cls-2" d="M108.32,145.88l-1.19,3.8h-.49l-1.05-3.19-1.05,3.19h-.49l-1.19-3.8h.49l.95,3.31,1.06-3.31h.49l1.05,3.31,.94-3.31h.48Z"/>
      <path class="cls-2" d="M108.97,145.06c-.07-.07-.1-.16-.1-.26s.04-.19,.1-.25,.15-.1,.25-.1,.18,.03,.25,.1,.1,.15,.1,.25-.04,.19-.1,.26c-.07,.07-.15,.1-.25,.1s-.18-.04-.25-.1Zm.49,.82v3.8h-.49v-3.8h.49Z"/>
      <path class="cls-2" d="M111.2,146.29v2.36c0,.23,.04,.39,.13,.48,.09,.09,.24,.13,.47,.13h.45v.42h-.52c-.34,0-.6-.08-.77-.24s-.25-.42-.25-.79v-2.36h-.53v-.41h.53v-.95h.49v.95h1.04v.41h-1.04Z"/>
      <path class="cls-2" d="M115.63,145.99c.23,.12,.41,.31,.54,.55,.13,.25,.2,.55,.2,.91v2.23h-.48v-2.17c0-.41-.1-.73-.31-.95-.21-.22-.49-.33-.85-.33s-.66,.12-.88,.35c-.22,.23-.33,.57-.33,1.02v2.07h-.49v-5.15h.49v2c.12-.23,.3-.4,.53-.53,.23-.13,.5-.19,.79-.19s.55,.06,.78,.18Z"/>
      <path class="cls-2" d="M120.32,149.41c-.37-.21-.66-.51-.87-.88-.21-.38-.32-.81-.32-1.28s.11-.91,.32-1.28c.21-.38,.5-.67,.87-.88,.37-.21,.77-.32,1.22-.32s.87,.11,1.23,.32c.37,.21,.65,.51,.86,.88,.21,.38,.31,.81,.31,1.28s-.1,.91-.31,1.28c-.21,.38-.5,.67-.86,.88s-.78,.32-1.23,.32-.86-.11-1.22-.32Zm2.2-.36c.29-.17,.52-.41,.68-.72,.17-.31,.25-.68,.25-1.09s-.08-.77-.25-1.09c-.17-.31-.39-.55-.68-.72-.29-.17-.61-.25-.97-.25s-.69,.08-.97,.25c-.29,.17-.51,.41-.68,.72-.17,.31-.25,.67-.25,1.09s.08,.78,.25,1.09c.17,.31,.39,.55,.68,.72,.29,.17,.61,.25,.97,.25s.69-.08,.97-.25Z"/>
      <path class="cls-2" d="M125.9,146.08c.26-.17,.57-.25,.94-.25,.34,0,.65,.08,.93,.24s.49,.39,.65,.68c.16,.29,.23,.64,.23,1.03s-.08,.73-.23,1.03c-.16,.3-.37,.53-.65,.69-.28,.16-.59,.24-.93,.24s-.67-.08-.93-.25-.46-.38-.58-.64v2.63h-.48v-5.59h.48v.84c.12-.26,.31-.47,.57-.64Zm2.07,.88c-.12-.23-.29-.4-.5-.53-.21-.12-.46-.18-.72-.18s-.5,.06-.71,.19c-.22,.12-.39,.3-.51,.54-.12,.23-.19,.5-.19,.81s.06,.58,.19,.81c.12,.23,.3,.41,.51,.54,.21,.12,.45,.19,.71,.19s.51-.06,.72-.18c.21-.12,.38-.3,.5-.54,.12-.23,.18-.51,.18-.82s-.06-.59-.18-.82Z"/>
      <path class="cls-2" d="M130.59,146.08c.26-.17,.57-.25,.94-.25,.34,0,.65,.08,.93,.24s.49,.39,.65,.68c.16,.29,.23,.64,.23,1.03s-.08,.73-.23,1.03c-.16,.3-.37,.53-.65,.69-.28,.16-.59,.24-.93,.24s-.67-.08-.93-.25-.46-.38-.58-.64v2.63h-.48v-5.59h.48v.84c.12-.26,.31-.47,.57-.64Zm2.07,.88c-.12-.23-.29-.4-.5-.53-.21-.12-.46-.18-.72-.18s-.5,.06-.71,.19c-.22,.12-.39,.3-.51,.54-.12,.23-.19,.5-.19,.81s.06,.58,.19,.81c.12,.23,.3,.41,.51,.54,.21,.12,.45,.19,.71,.19s.51-.06,.72-.18c.21-.12,.38-.3,.5-.54,.12-.23,.18-.51,.18-.82s-.06-.59-.18-.82Z"/>
      <path class="cls-2" d="M134.93,149.49c-.29-.16-.51-.39-.67-.68-.16-.29-.25-.64-.25-1.03s.08-.74,.25-1.03c.17-.29,.39-.52,.68-.68s.61-.24,.97-.24,.68,.08,.97,.24c.29,.16,.52,.39,.68,.68,.16,.29,.25,.64,.25,1.03s-.08,.73-.25,1.03-.4,.53-.69,.69-.62,.24-.97,.24-.68-.08-.96-.24Zm1.66-.35c.21-.11,.39-.29,.52-.52,.13-.23,.2-.51,.2-.84s-.07-.62-.2-.85-.3-.4-.51-.51c-.21-.11-.45-.17-.7-.17s-.48,.06-.7,.17c-.21,.11-.38,.29-.51,.51s-.19,.51-.19,.85,.06,.62,.19,.84c.13,.23,.3,.4,.51,.52,.21,.11,.44,.17,.69,.17s.48-.06,.7-.17Z"/>
      <path class="cls-2" d="M139.68,146c.22-.13,.49-.2,.81-.2v.51h-.13c-.35,0-.64,.1-.85,.29-.21,.19-.32,.51-.32,.95v2.12h-.49v-3.8h.49v.68c.11-.24,.27-.42,.49-.55Z"/>
      <path class="cls-2" d="M141.85,146.29v2.36c0,.23,.04,.39,.13,.48s.24,.13,.47,.13h.45v.42h-.52c-.34,0-.6-.08-.77-.24-.17-.16-.25-.42-.25-.79v-2.36h-.53v-.41h.53v-.95h.49v.95h1.04v.41h-1.04Z"/>
      <path class="cls-2" d="M146.99,145.88v3.8h-.49v-.67c-.11,.24-.28,.42-.52,.54-.23,.12-.49,.19-.78,.19-.45,0-.83-.14-1.11-.42-.29-.28-.43-.69-.43-1.22v-2.22h.48v2.17c0,.41,.1,.73,.31,.95,.21,.22,.49,.33,.85,.33s.66-.12,.88-.35c.22-.23,.33-.57,.33-1.02v-2.07h.49Z"/>
      <path class="cls-2" d="M151,146.23c.29,.28,.43,.69,.43,1.22v2.23h-.48v-2.17c0-.41-.1-.73-.31-.95-.21-.22-.49-.33-.84-.33s-.66,.12-.88,.35c-.22,.23-.33,.57-.33,1.02v2.07h-.49v-3.8h.49v.65c.12-.23,.29-.41,.52-.53s.49-.18,.77-.18c.46,0,.83,.14,1.11,.42Z"/>
      <path class="cls-2" d="M152.5,145.06c-.07-.07-.1-.16-.1-.26s.04-.19,.1-.25,.15-.1,.25-.1,.18,.03,.25,.1,.1,.15,.1,.25-.04,.19-.1,.26c-.07,.07-.15,.1-.25,.1s-.18-.04-.25-.1Zm.49,.82v3.8h-.49v-3.8h.49Z"/>
      <path class="cls-2" d="M154.73,146.29v2.36c0,.23,.04,.39,.13,.48s.24,.13,.47,.13h.45v.42h-.52c-.34,0-.6-.08-.77-.24s-.25-.42-.25-.79v-2.36h-.53v-.41h.53v-.95h.49v.95h1.04v.41h-1.04Z"/>
      <path class="cls-2" d="M159.71,145.88l-2.25,5.59h-.51l.74-1.81-1.56-3.78h.54l1.29,3.24,1.25-3.24h.5Z"/>
    </g>
  </g>
  <g>
    <path class="cls-4" d="M162.02,73.99h0s-3.82,4.22-3.82,4.22l-2.49,2.75-10.25,11.33-1.8,1.99c-.09,.09-.19,.18-.28,.27v.04l-8.01,8.85-8.27,9.13-2.9,3.2h-.06l-4.36,4.8h-16.63l15.28-16.83h0s.28-.3,.28-.3l3.55-3.92,19.28-21.31,1.81-2,5.17-5.71c-1.18-2.85-2.96-5.39-5.17-7.48-1.01-.95-2.12-1.81-3.3-2.56-3.34-2.11-7.3-3.33-11.55-3.33s-8.21,1.22-11.55,3.33c-5.92,3.74-9.9,10.27-10.1,17.74h-.18c-.02-.08-.04-.15-.06-.22,.01,.08,.02,.15,.03,.22h-11.96c.1-6.26,1.91-12.11,4.98-17.11,.13-.21,.27-.43,.4-.64,1.86-2.88,4.15-5.47,6.78-7.66,2.22-1.86,4.69-3.43,7.34-4.67,4.35-2.03,9.2-3.17,14.32-3.17s9.97,1.14,14.32,3.17c.17,.08,.35,.17,.52,.25,4.89,2.39,9.12,5.93,12.33,10.26,.44,.59,.86,1.2,1.26,1.82,.09,.14,.18,.28,.27,.42,2.44,3.9,4.11,8.34,4.78,13.1Z"/>
    <path class="cls-18" d="M143.9,114.49c0,3.36-2.72,6.09-6.09,6.09s-6.09-2.72-6.09-6.09,2.72-6.09,6.09-6.09,6.09,2.72,6.09,6.09Z"/>
    <path class="cls-6" d="M106.87,85.99v1.53c-.14,6.19-1.94,11.97-4.98,16.92-.82,1.33-1.73,2.6-2.72,3.81-1.35,1.63-2.84,3.14-4.47,4.5-5.87,4.89-13.42,7.84-21.65,7.84-10.52,0-19.92-4.8-26.12-12.33-4.81-5.84-7.7-13.33-7.7-21.49,0-1.27,.07-2.51,.21-3.74,.74-6.7,3.43-12.81,7.49-17.74,6.2-7.53,15.6-12.33,26.12-12.33,8.24,0,15.79,2.94,21.65,7.84v.21c.82,1.01,1.31,2.27,1.31,3.63,0,3.3-2.83,5.97-6.32,5.97-.94,0-1.83-.19-2.64-.54-.22-.1-.43-.2-.64-.32h0c-.37-.29-.75-.57-1.14-.84-2.78-1.91-6.03-3.18-9.54-3.61-.88-.11-1.77-.16-2.68-.16s-1.8,.06-2.68,.16c-9.46,1.17-17.03,8.43-18.65,17.74-.21,1.22-.32,2.47-.32,3.74,0,11.06,8.29,20.18,18.99,21.49,.87,.11,1.76,.16,2.66,.16s1.79-.05,2.66-.16c10.7-1.31,18.99-10.43,18.99-21.49v-2.02c0,.14,.02,.28,.04,.42-.02-.37-.03-.74-.03-1.12,.02-.35,.07-.7,.15-1.03h11.81c.08,.68,.13,1.36,.16,2.05h0c.02,.31,.03,.62,.03,.93Z"/>
    <path class="cls-13" d="M86.42,69.71c-.41-.24-.8-.52-1.14-.84,.39,.27,.77,.54,1.14,.84Z"/>
  </g>
</svg>